<?xml version="1.0" encoding="iso-8859-1"?>
<!-- Generator: Adobe Illustrator 19.0.0, SVG Export Plug-In . SVG Version: 6.00 Build 0)  -->
<svg version="1.1" id="Layer_1" xmlns="http://www.w3.org/2000/svg" xmlns:xlink="http://www.w3.org/1999/xlink" x="0px" y="0px"
	 viewBox="0 0 512 512" style="enable-background:new 0 0 512 512;" xml:space="preserve">
<g>
	<path style="fill:#78E7C7;" d="M439.957,268.262c18.284-20.612,16.38-52.436-4.231-70.72l0,0
		c-20.612-18.284-52.436-16.38-70.72,4.231l-18.78,21.171c0.405-40.189,0.759-68.227,0.759-68.227
		c0-81.526-59.77-147.552-141.472-147.016C124.485,8.236,59.48,75.02,59.48,156.049v327.924c0,11.226,9.1,20.326,20.326,20.326
		h245.486c11.418,0,20.596-9.394,20.32-20.809c-0.565-23.305-0.649-63.675-0.495-108.314L439.957,268.262z"/>
	<path style="fill:#78E7C7;" d="M439.957,268.262c18.284-20.612,16.38-52.436-4.231-70.72l0,0
		c-20.612-18.284-52.436-16.38-70.72,4.231l-18.78,21.171c0.405-40.189,0.759-68.227,0.759-68.227
		c0-81.526-59.77-147.552-141.472-147.016C124.485,8.236,65.961,75.02,65.961,156.049l-0.334,321.776
		c0,11.226,2.953,26.474,14.178,26.474h245.486c11.418,0,20.596-9.394,20.32-20.809c-0.565-23.305-0.649-63.675-0.495-108.314
		L439.957,268.262z"/>
</g>
<path style="opacity:0.1;fill:#272727;enable-background:new    ;" d="M439.957,268.262c10.724-12.088,14.493-28.031,11.626-42.839
	c-0.375-0.045-40.047,30.074-85.39,66.862c-29.43,23.877-55.041,56.041-57.779,93.84c0,59.008-0.777,114.584,0,118.174h16.877
	c11.418,0,20.596-9.394,20.32-20.809c-0.565-23.305-0.649-63.675-0.495-108.314L439.957,268.262z"/>
<g>
	<path style="fill:#C3FBE4;" d="M126.2,31.826c-40.231,26.589-66.719,72.501-66.719,124.223v327.924
		c0,11.226,9.1,20.325,20.326,20.325h46.394V31.826H126.2z"/>
	<path style="fill:#C3FBE4;" d="M201.984,7.772v496.526h78.369V28.61C259.01,15.178,233.553,7.52,205.512,7.704
		C204.332,7.711,203.158,7.737,201.984,7.772z"/>
</g>
<path style="fill:#1D7D6F;" d="M59.48,437.019h285.613c-0.02-4.954-0.032-10.1-0.038-15.402H59.48V437.019z"/>
<path d="M445.718,273.374c10.208-11.508,15.322-26.354,14.397-41.803c-0.924-15.45-7.771-29.581-19.279-39.788
	c-10.542-9.351-24.147-14.501-38.311-14.501c-16.578,0-32.352,7.065-43.278,19.383l-5.106,5.755
	c0.305-28.53,0.542-47.392,0.545-47.7c0-41.664-14.873-80.455-41.879-109.228C285.272,16.155,247.518,0,206.5,0
	C121.187,0,51.779,69.407,51.779,154.72v349.579c0,4.254,3.448,7.701,7.701,7.701h287.504c3.115,0,5.924-1.877,7.116-4.755
	c0.769-1.857,0.767-3.895,0.077-5.698c-0.574-3.792-1.69-23.826-1.37-123.438L445.718,273.374z M118.521,46.779v83.765
	c0,4.254,3.448,7.701,7.701,7.701s7.701-3.447,7.701-7.701v-94.7c18.002-11.031,38.687-18.084,60.831-19.941v304.133
	c0,4.254,3.448,7.701,7.701,7.701c4.253,0,7.701-3.447,7.701-7.701V15.452c21.854,0.574,42.575,6.287,60.831,16.564v389.601h-60.831
	v-61.071c0-4.254-3.448-7.701-7.701-7.701c-4.253,0-7.701,3.447-7.701,7.701v61.071h-60.831v-247.95
	c0-4.254-3.448-7.701-7.701-7.701c-4.253,0-7.701,3.447-7.701,7.701v247.95h-51.34V154.72
	C67.181,111.236,87.21,72.347,118.521,46.779z M133.923,437.019h60.831v58.568c0,0.343,0.031,0.68,0.074,1.01H133.85
	c0.043-0.332,0.074-0.667,0.074-1.01v-58.568H133.923z M210.155,495.587v-58.568h60.831v58.568c0,0.343,0.031,0.68,0.074,1.01
	h-60.979C210.124,496.267,210.155,495.931,210.155,495.587z M67.181,437.019h51.34v58.568c0,0.343,0.031,0.68,0.074,1.01H67.181
	V437.019z M286.314,496.598c0.043-0.332,0.074-0.667,0.074-1.01V437.02h51.005c0.04,10.527,0.107,19.85,0.201,27.916
	c0.182,15.531,0.399,25.333,0.743,31.662L286.314,496.598L286.314,496.598z M339.356,370.065c-1.244,1.403-1.934,3.21-1.941,5.085
	c-0.059,17.123-0.079,32.628-0.061,46.468h-50.967V42.227c5.372,4.153,10.452,8.758,15.188,13.804
	c24.317,25.907,37.709,60.955,37.71,98.591c-0.004,0.28-0.359,28.508-0.76,68.247c-0.032,3.213,1.933,6.107,4.932,7.262
	c3,1.158,6.398,0.328,8.531-2.075l18.781-21.172c8.006-9.024,19.581-14.201,31.757-14.201c10.393,0,20.369,3.772,28.091,10.621
	c8.43,7.478,13.446,17.843,14.124,29.186c0.679,11.343-3.065,22.232-10.544,30.662L339.356,370.065z"/>
<g>
</g>
<g>
</g>
<g>
</g>
<g>
</g>
<g>
</g>
<g>
</g>
<g>
</g>
<g>
</g>
<g>
</g>
<g>
</g>
<g>
</g>
<g>
</g>
<g>
</g>
<g>
</g>
<g>
</g>
</svg>
