<?xml version="1.0" standalone="no"?>
<!DOCTYPE svg PUBLIC "-//W3C//DTD SVG 20010904//EN"
 "http://www.w3.org/TR/2001/REC-SVG-20010904/DTD/svg10.dtd">
<svg version="1.0" xmlns="http://www.w3.org/2000/svg"
 width="260.000000pt" height="260.000000pt" viewBox="0 0 260.000000 260.000000"
 preserveAspectRatio="xMidYMid meet">
<metadata>
Created by potrace 1.11, written by Peter Selinger 2001-2013
</metadata>
<g transform="translate(0.000000,260.000000) scale(0.100000,-0.100000)"
fill="#000000" stroke="none">
<path d="M0 1300 l0 -1300 1300 0 1300 0 0 1300 0 1300 -1300 0 -1300 0 0
-1300z m1727 890 c164 -21 270 -86 325 -197 30 -61 33 -76 32 -148 -2 -99 -28
-171 -92 -256 -94 -126 -267 -221 -467 -259 -33 -6 -66 -13 -72 -15 -27 -9 87
-277 188 -442 57 -93 164 -236 249 -332 38 -44 70 -82 70 -85 0 -3 -72 -6
-161 -6 -128 0 -168 3 -195 16 -102 48 -241 291 -340 592 -46 140 -72 258 -61
285 3 9 22 19 44 22 333 54 501 152 569 335 11 28 17 76 18 130 1 76 -2 91
-29 139 -16 29 -44 65 -62 78 -39 30 -130 60 -198 64 l-50 4 -57 -85 c-242
-360 -627 -1338 -605 -1537 l5 -43 -165 0 c-152 0 -164 1 -159 18 94 328 182
565 374 1012 139 322 232 516 285 594 l20 29 -74 -7 c-153 -15 -318 -61 -441
-122 -81 -41 -130 -82 -153 -130 -9 -19 -22 -33 -28 -31 -23 7 -18 58 12 123
65 138 200 236 351 253 103 12 778 13 867 1z"/>
</g>
</svg>
